<svg width="40" height="39" viewBox="0 0 40 39" fill="none" xmlns="http://www.w3.org/2000/svg">
<path d="M9.5 1.5V6M30.5 1.5V6M2 33V10.5C2 9.30653 2.47411 8.16193 3.31802 7.31802C4.16193 6.47411 5.30653 6 6.5 6H33.5C34.6935 6 35.8381 6.47411 36.682 7.31802C37.5259 8.16193 38 9.30653 38 10.5V33M2 33C2 34.1935 2.47411 35.3381 3.31802 36.182C4.16193 37.0259 5.30653 37.5 6.5 37.5H33.5C34.6935 37.5 35.8381 37.0259 36.682 36.182C37.5259 35.3381 38 34.1935 38 33M2 33V18C2 16.8065 2.47411 15.6619 3.31802 14.818C4.16193 13.9741 5.30653 13.5 6.5 13.5H33.5C34.6935 13.5 35.8381 13.9741 36.682 14.818C37.5259 15.6619 38 16.8065 38 18V33M20 21H20.016V21.016H20V21ZM20 25.5H20.016V25.516H20V25.5ZM20 30H20.016V30.016H20V30ZM15.5 25.5H15.516V25.516H15.5V25.5ZM15.5 30H15.516V30.016H15.5V30ZM11 25.5H11.016V25.516H11V25.5ZM11 30H11.016V30.016H11V30ZM24.5 21H24.516V21.016H24.5V21ZM24.5 25.5H24.516V25.516H24.5V25.5ZM24.5 30H24.516V30.016H24.5V30ZM29 21H29.016V21.016H29V21ZM29 25.5H29.016V25.516H29V25.5Z" stroke="#8DD3BB" stroke-width="3" stroke-linecap="round" stroke-linejoin="round"/>
</svg>
