<svg width="1026" height="310" viewBox="0 0 1026 310" fill="none" xmlns="http://www.w3.org/2000/svg">
<path d="M148 10C98.9982 34.7824 54.0503 75.4325 24.872 121.966C15.2943 138.369 -0.208026 166.271 9.85961 184.769C15.3834 193.862 26.6984 196.001 36.7215 195.957V196.492C26.2529 198.096 13.4234 196.18 6.9195 186.73C-5.99914 166.985 9.36959 136.764 20.4173 119.203C48.6155 76.1011 101.003 28.8542 148 10Z" fill="#8DD3BB" stroke="#8DD3BB" stroke-width="3" stroke-linecap="round" stroke-linejoin="round"/>
<path d="M51.9648 0H117.806V121.792H207.836V171.24H51.9648V0Z" fill="#112211"/>
<path d="M221.377 134.8C221.377 115.823 233.36 98.895 268.998 98.895H334.037V94.7521C334.037 81.7443 326.241 75.5077 304.635 75.5077C283.03 75.5077 278.62 81.7443 278.62 88.5155C278.62 89.0501 278.62 89.8074 278.887 90.8765H225.787C225.519 88.7828 225.252 86.1991 225.252 84.6399C225.252 58.6243 247.348 40.1371 306.952 40.1371C366.556 40.1371 393.864 62.7672 393.864 98.1823V171.284H334.037C334.571 163.489 335.061 152.53 335.329 145.001H334.794C329.582 161.395 315.282 173.868 278.575 173.868C234.34 173.868 221.332 152.263 221.332 134.845L221.377 134.8ZM334.037 123.886V122.06H292.92C280.446 122.06 274.967 124.421 274.967 131.147C274.967 137.874 281.738 142.596 299.423 142.596C321.786 142.596 333.769 132.439 334.037 123.842V123.886Z" fill="#112211"/>
<path d="M426.43 122.015V83.4818H404.824V42.6319H422.51C430.573 42.6319 433.691 38.979 434.983 29.8914L437.344 13.498H486.257V42.6319H544.302V83.4818H486.257V117.56C486.257 130.034 493.295 133.687 516.46 133.687C526.082 133.687 536.996 132.662 542.743 131.86V170.349C536.239 171.908 520.647 173.735 501.893 173.735C444.65 173.735 426.43 151.862 426.43 121.971V122.015Z" fill="#112211"/>
<path d="M556.286 134.8C556.286 115.823 568.269 98.895 603.907 98.895H668.946V94.7521C668.946 81.7443 661.15 75.5077 639.545 75.5077C617.939 75.5077 613.529 81.7443 613.529 88.5155C613.529 89.0501 613.529 89.8074 613.796 90.8765H560.696C560.429 88.7828 560.161 86.1991 560.161 84.6399C560.161 58.6243 582.301 40.1371 641.861 40.1371C701.421 40.1371 728.773 62.7672 728.773 98.1823V171.284H668.946C669.48 163.489 669.97 152.53 670.238 145.001H669.703C664.491 161.395 650.191 173.868 613.484 173.868C569.249 173.868 556.241 152.263 556.241 134.845L556.286 134.8ZM668.946 123.886V122.06H627.829C615.355 122.06 609.876 124.421 609.876 131.147C609.876 137.874 616.647 142.596 634.333 142.596C656.695 142.596 668.679 132.439 668.946 123.842V123.886Z" fill="#112211"/>
<path d="M746.815 42.6763H806.642L805.841 79.116H806.108C813.636 57.0206 830.564 40.0926 861.525 40.0926C894.044 40.0926 910.438 54.125 915.115 79.3833H915.382C922.154 56.7533 941.398 40.0926 971.067 40.0926C1010.36 40.0926 1025.19 60.8962 1025.19 93.193V171.24H965.365V108.785C965.365 93.683 959.395 86.1545 943.002 86.1545C929.994 86.1545 915.962 94.4848 915.962 114.264V171.24H856.135V108.785C856.135 93.683 849.898 86.1545 833.772 86.1545C820.497 86.1545 806.732 94.4848 806.732 114.264V171.24H746.905V42.6763H746.815Z" fill="#112211"/>
<path d="M52.1442 281.94C52.1442 267.729 59.0044 256.726 77.7589 256.726H115.134V255.479C115.134 243.763 109.744 238.996 94.5086 238.996C80.4762 238.996 76.957 244.075 76.957 249.153C76.957 249.331 76.957 249.866 77.0906 250.712H54.4161C54.2824 249.153 54.2824 247.906 54.2824 247.549C54.2824 231.067 65.7311 219.351 95.4441 219.351C125.157 219.351 139.145 233.383 139.145 258.419V307.644H115.134C115.401 301.674 115.802 293.789 115.802 288.355H115.669C112.951 300.783 105.022 309.381 83.9509 309.381C59.4054 309.381 52.0996 294.324 52.0996 281.895L52.1442 281.94ZM115.179 273.52V272.808H85.1092C77.0015 272.808 73.5269 274.545 73.5269 280.158C73.5269 285.771 78.1152 289.78 90.8112 289.78C106.982 289.78 115.223 280.692 115.223 273.476L115.179 273.52Z" fill="#112211"/>
<path d="M149.3 263.364C149.3 239.353 164.001 219.395 190.863 219.395C207.479 219.395 216.077 225.721 219.997 234.987H220.264V185.049H244.275V307.688H220.264C220.398 303.322 220.665 294.903 220.799 288.399H220.532C217.413 300.115 208.949 309.425 189.482 309.425C163.556 309.425 149.256 290.849 149.256 263.364H149.3ZM220.264 264.076V261.983C220.264 251.469 212.424 241.847 196.253 241.847C181.152 241.847 173.178 251.113 173.178 263.586C173.178 277.93 181.553 287.063 195.852 287.063C211.488 287.063 220.264 274.278 220.264 264.121V264.076Z" fill="#112211"/>
<path d="M253.321 221.133H281.653L306.599 281.583H306.733L331.68 221.133H356.893L319.385 307.643H291.32L253.276 221.133H253.321Z" fill="#112211"/>
<path d="M447.322 270.892H383.219C384.421 281.762 389.812 289.825 405.893 289.825C420.594 289.825 425.049 285.103 425.984 279.133H447.322C446.654 295.794 435.428 309.426 405.893 309.426C369.721 309.426 358.94 287.196 358.94 265.279C358.94 237.081 375.423 219.395 404.557 219.395C433.691 219.395 447.322 235.522 447.322 263.72V270.892ZM425.984 254.098C425.984 246.213 421.396 239.041 405.893 239.041C391.861 239.041 385.802 244.654 383.753 254.811H425.984V254.098Z" fill="#112211"/>
<path d="M458.15 221.133H482.161L481.894 246.347H482.161C486.349 229.864 496.595 219.351 517.532 219.351C543.325 219.351 551.789 235.121 551.789 256.147V307.644H527.778V264.566C527.778 252.85 522.789 243.54 506.573 243.54C493.476 243.54 482.161 250.89 482.161 268.219V307.644H458.15V221.133Z" fill="#112211"/>
<path d="M570.807 274.055V243.585H558.512V221.177H568.758C572.277 221.177 573.346 218.905 573.881 213.649L575.083 201.577H594.773V221.177H629.03V243.585H594.773V273.342C594.773 283.499 599.228 287.018 612.993 287.018C618.116 287.018 624.754 286.127 628.362 285.281V306.842C624.843 308.223 616.913 309.47 609.073 309.47C579.672 309.47 570.762 294.413 570.762 274.1L570.807 274.055Z" fill="#112211"/>
<path d="M639.59 271.07V221.133H663.601V264.032C663.601 277.886 668.723 285.236 683.691 285.236C697.456 285.236 709.172 274.723 709.172 256.681V221.133H733.183V307.643H709.172C709.306 302.387 709.44 292.052 709.44 282.964H709.172C704.718 299.937 695.006 309.425 673.535 309.425C649.39 309.425 639.545 291.205 639.545 271.07H639.59Z" fill="#112211"/>
<path d="M745.389 221.133H769.4L768.999 246.168H769.4C773.186 231.824 782.363 219.351 799.915 219.351C822.055 219.351 829.049 235.121 829.049 256.86C829.049 264.21 828.648 271.382 828.38 274.723H806.107C806.24 272.808 806.374 269.288 806.374 265.947C806.374 251.425 802.988 243.54 791.406 243.54C776.037 243.54 769.4 258.775 769.4 273.832V307.644H745.389V221.133Z" fill="#112211"/>
<path d="M928.212 270.892H864.108C865.311 281.762 870.701 289.825 886.783 289.825C901.484 289.825 905.938 285.103 906.874 279.133H928.212C927.544 295.794 916.318 309.426 886.783 309.426C850.61 309.426 839.83 287.196 839.83 265.279C839.83 237.081 856.313 219.395 885.447 219.395C914.58 219.395 928.212 235.522 928.212 263.72V270.892ZM906.874 254.098C906.874 246.213 902.285 239.041 886.783 239.041C872.751 239.041 866.692 244.654 864.643 254.811H906.874V254.098Z" fill="#112211"/>
<path d="M937.609 278.955H960.284C960.417 284.568 962.155 289.825 978.771 289.825C995.387 289.825 998.06 286.305 998.06 281.049C998.06 278.421 996.857 276.149 992.536 275.436C987.413 274.545 979.573 274.545 972.311 274.055C959.214 273.342 949.77 271.427 944.781 267.551C939.792 263.675 937.609 257.216 937.609 249.866C937.609 231.646 952.042 219.395 978.771 219.395C1010.76 219.395 1018.02 233.606 1018.02 250.4H995.342C995.209 244.075 992.937 238.996 979.439 238.996C965.941 238.996 961.62 242.516 961.62 247.906C961.62 251.247 963.09 252.984 967.946 254.053C972.534 254.944 979.394 254.944 988.304 255.612C998.282 256.325 1007.33 257.35 1012.85 260.691C1019.04 264.388 1022.03 271.204 1022.03 279.98C1022.03 294.012 1014.45 309.426 978.726 309.426C942.999 309.426 937.564 292.097 937.564 278.955H937.609Z" fill="#112211"/>
<path d="M53 191C102.016 166.218 146.937 125.567 176.097 79.0337C185.669 62.631 201.162 34.7286 191.101 16.2309C185.58 7.13813 174.272 4.99865 164.255 5.04322V4.50835C174.762 2.90373 187.539 4.82036 194.083 14.2697C206.994 34.0154 191.635 64.2356 180.594 81.7972C152.413 124.899 100.013 172.101 53.0445 191H53Z" fill="#8DD3BB" stroke="#8DD3BB" stroke-width="3" stroke-linecap="round" stroke-linejoin="round"/>
</svg>
