<svg width="149" height="45" viewBox="0 0 149 45" fill="none" xmlns="http://www.w3.org/2000/svg">
<path d="M22.9755 2.42188C15.9356 5.94539 9.47796 11.725 5.28597 18.3411C3.90997 20.6732 1.68278 24.6403 3.12917 27.2703C3.92277 28.5631 5.54837 28.8673 6.98837 28.8609V28.937C5.48437 29.1651 3.64117 28.8926 2.70678 27.5491C0.850778 24.7417 3.05877 20.4451 4.64597 17.9482C8.69716 11.82 16.2236 5.10254 22.9755 2.42188Z" fill="#8DD3BB" stroke="#8DD3BB" stroke-width="3" stroke-linecap="round" stroke-linejoin="round"/>
<path d="M9.17847 1H18.6377V18.3163H31.5722V25.3466H9.17847V1Z" fill="#112211"/>
<path d="M33.5174 20.1656C33.5174 17.4674 35.239 15.0607 40.359 15.0607H49.7031V14.4716C49.7031 12.6222 48.583 11.7355 45.479 11.7355C42.375 11.7355 41.7414 12.6222 41.7414 13.5849C41.7414 13.6609 41.7414 13.7686 41.7798 13.9206H34.151C34.1126 13.6229 34.0742 13.2556 34.0742 13.0339C34.0742 9.33502 37.2486 6.70654 45.8118 6.70654C54.3751 6.70654 58.2983 9.92405 58.2983 14.9593V25.3529H49.7031C49.7799 24.2445 49.8503 22.6864 49.8887 21.616H49.8118C49.063 23.9468 47.0086 25.7202 41.735 25.7202C35.3798 25.7202 33.511 22.6484 33.511 20.1719L33.5174 20.1656ZM49.7031 18.6138V18.3542H43.7958C42.0038 18.3542 41.2166 18.6898 41.2166 19.6462C41.2166 20.6026 42.1894 21.274 44.7302 21.274C47.943 21.274 49.6646 19.8299 49.7031 18.6075V18.6138Z" fill="#112211"/>
<path d="M62.9771 18.348V12.8694H59.873V7.06141H62.4139C63.5723 7.06141 64.0203 6.54205 64.2059 5.24998L64.5451 2.91919H71.5723V7.06141H79.9115V12.8694H71.5723V17.7146C71.5723 19.4881 72.5835 20.0074 75.9115 20.0074C77.2939 20.0074 78.8619 19.8618 79.6875 19.7477V25.22C78.7531 25.4417 76.5131 25.7014 73.8187 25.7014C65.5947 25.7014 62.9771 22.5916 62.9771 18.3417V18.348Z" fill="#112211"/>
<path d="M81.6333 20.1656C81.6333 17.4674 83.355 15.0607 88.475 15.0607H97.819V14.4716C97.819 12.6222 96.699 11.7355 93.595 11.7355C90.491 11.7355 89.8574 12.6222 89.8574 13.5849C89.8574 13.6609 89.8574 13.7686 89.8958 13.9206H82.267C82.2286 13.6229 82.1902 13.2556 82.1902 13.0339C82.1902 9.33502 85.371 6.70654 93.9278 6.70654C102.485 6.70654 106.414 9.92405 106.414 14.9593V25.3529H97.819C97.8958 24.2445 97.9662 22.6864 98.0046 21.616H97.9278C97.179 23.9468 95.1246 25.7202 89.851 25.7202C83.4958 25.7202 81.627 22.6484 81.627 20.1719L81.6333 20.1656ZM97.819 18.6138V18.3542H91.9118C90.1198 18.3542 89.3326 18.6898 89.3326 19.6462C89.3326 20.6026 90.3054 21.274 92.8462 21.274C96.059 21.274 97.7806 19.8299 97.819 18.6075V18.6138Z" fill="#112211"/>
<path d="M109.006 7.06755H117.602L117.486 12.2485H117.525C118.606 9.10699 121.038 6.7002 125.486 6.7002C130.158 6.7002 132.514 8.6953 133.186 12.2865H133.224C134.197 9.06899 136.962 6.7002 141.224 6.7002C146.869 6.7002 149 9.65802 149 14.2499V25.3465H140.405V16.4667C140.405 14.3196 139.547 13.2492 137.192 13.2492C135.323 13.2492 133.307 14.4336 133.307 17.2458V25.3465H124.712V16.4667C124.712 14.3196 123.816 13.2492 121.499 13.2492C119.592 13.2492 117.614 14.4336 117.614 17.2458V25.3465H109.019V7.06755H109.006Z" fill="#112211"/>
<path d="M9.20415 41.0858C9.20415 39.0654 10.1898 37.501 12.8842 37.501H18.2538V37.3236C18.2538 35.6579 17.4794 34.9802 15.2906 34.9802C13.2746 34.9802 12.769 35.7022 12.769 36.4242C12.769 36.4496 12.769 36.5256 12.7882 36.6459H9.53055C9.51135 36.4242 9.51135 36.2469 9.51135 36.1962C9.51135 33.8528 11.1562 32.187 15.425 32.187C19.6938 32.187 21.7034 34.1821 21.7034 37.7416V44.7403H18.2538C18.2922 43.8916 18.3498 42.7706 18.3498 41.9979H18.3306C17.9402 43.765 16.801 44.9874 13.7738 44.9874C10.2474 44.9874 9.19775 42.8466 9.19775 41.0795L9.20415 41.0858ZM18.2602 39.8888V39.7874H13.9402C12.7754 39.7874 12.2762 40.0344 12.2762 40.8325C12.2762 41.6305 12.9354 42.2005 14.7594 42.2005C17.0826 42.2005 18.2666 40.9085 18.2666 39.8824L18.2602 39.8888Z" fill="#112211"/>
<path d="M23.1624 38.4446C23.1624 35.0308 25.2744 32.1933 29.1336 32.1933C31.5208 32.1933 32.756 33.0927 33.3192 34.4101H33.3576V27.3101H36.8073V44.7467H33.3576C33.3768 44.126 33.4152 42.9289 33.4344 42.0042H33.396C32.948 43.6699 31.732 44.9937 28.9352 44.9937C25.2104 44.9937 23.156 42.3525 23.156 38.4446H23.1624ZM33.3576 38.546V38.2483C33.3576 36.7536 32.2312 35.3855 29.908 35.3855C27.7384 35.3855 26.5928 36.7029 26.5928 38.4763C26.5928 40.5158 27.796 41.8142 29.8504 41.8142C32.0968 41.8142 33.3576 39.9964 33.3576 38.5523V38.546Z" fill="#112211"/>
<path d="M38.1067 32.4404H42.1772L45.7612 41.0352H45.7804L49.3644 32.4404H52.9868L47.598 44.7404H43.566L38.1003 32.4404H38.1067Z" fill="#112211"/>
<path d="M65.9787 39.5151H56.769C56.9418 41.0605 57.7162 42.2069 60.0266 42.2069C62.1386 42.2069 62.7786 41.5355 62.913 40.6868H65.9787C65.8827 43.0556 64.2698 44.9937 60.0266 44.9937C54.8298 44.9937 53.281 41.8332 53.281 38.717C53.281 34.7078 55.649 32.1934 59.8346 32.1934C64.0202 32.1934 65.9787 34.4861 65.9787 38.4954V39.5151ZM62.913 37.1273C62.913 36.0062 62.2538 34.9865 60.0266 34.9865C58.0106 34.9865 57.1402 35.7846 56.8458 37.2286H62.913V37.1273Z" fill="#112211"/>
<path d="M67.5342 32.4404H70.9838L70.9454 36.0252H70.9838C71.5854 33.6818 73.0574 32.187 76.0654 32.187C79.771 32.187 80.987 34.4291 80.987 37.4186V44.7403H77.5374V38.6157C77.5374 36.9499 76.8206 35.6262 74.491 35.6262C72.6094 35.6262 70.9838 36.6712 70.9838 39.135V44.7403H67.5342V32.4404Z" fill="#112211"/>
<path d="M83.7195 39.9648V35.6326H81.9531V32.4467H83.4251C83.9307 32.4467 84.0843 32.1237 84.1611 31.3763L84.3339 29.6599H87.1628V32.4467H92.0844V35.6326H87.1628V39.8635C87.1628 41.3075 87.8028 41.8079 89.7804 41.8079C90.5164 41.8079 91.47 41.6812 91.9884 41.5609V44.6264C91.4828 44.8227 90.3436 45.0001 89.2172 45.0001C84.9931 45.0001 83.7131 42.8593 83.7131 39.9711L83.7195 39.9648Z" fill="#112211"/>
<path d="M93.6014 39.5405V32.4404H97.051V38.5398C97.051 40.5095 97.787 41.5546 99.9374 41.5546C101.915 41.5546 103.598 40.0598 103.598 37.4947V32.4404H107.048V44.7404H103.598C103.617 43.993 103.637 42.5236 103.637 41.2316H103.598C102.958 43.6447 101.563 44.9938 98.4782 44.9938C95.0094 44.9938 93.595 42.4033 93.595 39.5405H93.6014Z" fill="#112211"/>
<path d="M108.801 32.4404H112.251L112.193 35.9999H112.251C112.795 33.9604 114.113 32.187 116.635 32.187C119.816 32.187 120.821 34.4291 120.821 37.52C120.821 38.565 120.763 39.5847 120.725 40.0598H117.525C117.544 39.7874 117.563 39.2871 117.563 38.812C117.563 36.7473 117.077 35.6262 115.412 35.6262C113.204 35.6262 112.251 37.7923 112.251 39.9331V44.7403H108.801V32.4404Z" fill="#112211"/>
<path d="M135.067 39.5151H125.857C126.03 41.0605 126.805 42.2069 129.115 42.2069C131.227 42.2069 131.867 41.5355 132.001 40.6868H135.067C134.971 43.0556 133.358 44.9937 129.115 44.9937C123.918 44.9937 122.369 41.8332 122.369 38.717C122.369 34.7078 124.737 32.1934 128.923 32.1934C133.109 32.1934 135.067 34.4861 135.067 38.4954V39.5151ZM132.001 37.1273C132.001 36.0062 131.342 34.9865 129.115 34.9865C127.099 34.9865 126.229 35.7846 125.934 37.2286H132.001V37.1273Z" fill="#112211"/>
<path d="M136.417 40.6615H139.675C139.694 41.4595 139.943 42.2069 142.331 42.2069C144.718 42.2069 145.102 41.7065 145.102 40.9592C145.102 40.5855 144.929 40.2625 144.308 40.1611C143.572 40.0344 142.446 40.0344 141.403 39.9648C139.521 39.8634 138.164 39.5911 137.447 39.0401C136.731 38.489 136.417 37.5706 136.417 36.5256C136.417 33.9351 138.491 32.1934 142.331 32.1934C146.926 32.1934 147.969 34.2138 147.969 36.6016H144.711C144.692 35.7022 144.366 34.9802 142.427 34.9802C140.487 34.9802 139.867 35.4805 139.867 36.2469C139.867 36.7219 140.078 36.9689 140.775 37.121C141.435 37.2476 142.42 37.2476 143.7 37.3426C145.134 37.444 146.433 37.5896 147.227 38.0647C148.116 38.5904 148.545 39.5594 148.545 40.8071C148.545 42.8023 147.457 44.9937 142.324 44.9937C137.191 44.9937 136.411 42.5299 136.411 40.6615H136.417Z" fill="#112211"/>
<path d="M9.32715 28.156C16.3692 24.6325 22.8229 18.8529 27.0123 12.2368C28.3875 9.90467 30.6133 5.93754 29.1678 3.30758C28.3747 2.01478 26.7501 1.71059 25.311 1.71693V1.64088C26.8204 1.41274 28.6561 1.68524 29.5963 3.02874C31.4512 5.83615 29.2446 10.1328 27.6583 12.6297C23.6096 18.7578 16.0814 25.469 9.33354 28.156H9.32715Z" fill="#8DD3BB" stroke="#8DD3BB" stroke-width="3" stroke-linecap="round" stroke-linejoin="round"/>
</svg>
