<svg width="159" height="49" viewBox="0 0 159 49" fill="none" xmlns="http://www.w3.org/2000/svg">
<path d="M24.4024 3.01874C16.8835 6.7825 9.98667 12.9561 5.50951 20.0233C4.0399 22.5145 1.6612 26.7521 3.20599 29.5614C4.05357 30.9423 5.78976 31.2672 7.32771 31.2605V31.3417C5.7214 31.5854 3.75282 31.2943 2.75486 29.8592C0.7726 26.8604 3.1308 22.2708 4.82597 19.6036C9.15275 13.0577 17.1911 5.88217 24.4024 3.01874Z" fill="#8DD3BB" stroke="#8DD3BB" stroke-width="3" stroke-linecap="round" stroke-linejoin="round"/>
<path d="M9.6665 1.5H19.7692V19.9969H33.5836V27.5066H9.6665V1.5Z" fill="#FCFDFC"/>
<path d="M35.6611 21.9724C35.6611 19.0903 37.4999 16.5194 42.9682 16.5194H52.9479V15.8902C52.9479 13.9147 51.7517 12.9675 48.4365 12.9675C45.1213 12.9675 44.4446 13.9147 44.4446 14.9431C44.4446 15.0243 44.4446 15.1393 44.4856 15.3016H36.3378C36.2968 14.9837 36.2558 14.5913 36.2558 14.3545C36.2558 10.4034 39.6462 7.59573 48.7919 7.59573C57.9377 7.59573 62.1278 11.0326 62.1278 16.4112V27.5134H52.9479C53.0299 26.3294 53.1051 24.6651 53.1461 23.5217H53.0641C52.2643 26.0115 50.0702 27.9058 44.4378 27.9058C37.6502 27.9058 35.6543 24.6245 35.6543 21.9792L35.6611 21.9724ZM52.9479 20.3149V20.0375H46.6388C44.7249 20.0375 43.8841 20.3961 43.8841 21.4177C43.8841 22.4393 44.9231 23.1564 47.6368 23.1564C51.0681 23.1564 52.9068 21.6139 52.9479 20.3081V20.3149Z" fill="#FCFDFC"/>
<path d="M67.1247 20.0307V14.1786H63.8096V7.9746H66.5232C67.7604 7.9746 68.2389 7.41983 68.4371 6.03967L68.7994 3.54996H76.3047V7.9746H85.2112V14.1786H76.3047V19.3542C76.3047 21.2485 77.3847 21.8033 80.9391 21.8033C82.4155 21.8033 84.0902 21.6477 84.972 21.5259V27.3713C83.974 27.6081 81.5816 27.8855 78.7039 27.8855C69.9204 27.8855 67.1247 24.5636 67.1247 20.024V20.0307Z" fill="#FCFDFC"/>
<path d="M87.0503 21.9724C87.0503 19.0903 88.889 16.5194 94.3573 16.5194H104.337V15.8902C104.337 13.9147 103.141 12.9675 99.8256 12.9675C96.5105 12.9675 95.8338 13.9147 95.8338 14.9431C95.8338 15.0243 95.8338 15.1393 95.8748 15.3016H87.727C87.686 14.9837 87.645 14.5913 87.645 14.3545C87.645 10.4034 91.0422 7.59573 100.181 7.59573C109.32 7.59573 113.517 11.0326 113.517 16.4112V27.5134H104.337C104.419 26.3294 104.494 24.6651 104.535 23.5217H104.453C103.653 26.0115 101.459 27.9058 95.8269 27.9058C89.0394 27.9058 87.0435 24.6245 87.0435 21.9792L87.0503 21.9724ZM104.337 20.3149V20.0375H98.0279C96.114 20.0375 95.2733 20.3961 95.2733 21.4177C95.2733 22.4393 96.3123 23.1564 99.0259 23.1564C102.457 23.1564 104.296 21.6139 104.337 20.3081V20.3149Z" fill="#FCFDFC"/>
<path d="M116.285 7.98136H125.465L125.342 13.5155H125.383C126.538 10.1599 129.136 7.58896 133.886 7.58896C138.876 7.58896 141.392 9.72009 142.109 13.5561H142.15C143.189 10.1193 146.142 7.58896 150.695 7.58896C156.723 7.58896 159 10.7485 159 15.6534V27.5066H149.82V18.0214C149.82 15.7279 148.904 14.5845 146.388 14.5845C144.392 14.5845 142.239 15.8496 142.239 18.8535V27.5066H133.059V18.0214C133.059 15.7279 132.102 14.5845 129.628 14.5845C127.591 14.5845 125.479 15.8496 125.479 18.8535V27.5066H116.299V7.98136H116.285Z" fill="#FCFDFC"/>
<path d="M9.69433 44.3189C9.69433 42.1607 10.747 40.4896 13.6247 40.4896H19.3596V40.3002C19.3596 38.5209 18.5325 37.797 16.1948 37.797C14.0417 37.797 13.5017 38.5682 13.5017 39.3395C13.5017 39.3666 13.5017 39.4477 13.5222 39.5763H10.0429C10.0224 39.3395 10.0224 39.1501 10.0224 39.0959C10.0224 36.5927 11.7791 34.8134 16.3383 34.8134C20.8976 34.8134 23.0439 36.9445 23.0439 40.7467V48.2226H19.3596C19.4006 47.316 19.4621 46.1185 19.4621 45.2931H19.4416C19.0247 47.1807 17.808 48.4865 14.5748 48.4865C10.8085 48.4865 9.6875 46.1997 9.6875 44.3121L9.69433 44.3189ZM19.3664 43.0402V42.932H14.7525C13.5085 42.932 12.9753 43.1958 12.9753 44.0483C12.9753 44.9007 13.6794 45.5096 15.6275 45.5096C18.1087 45.5096 19.3733 44.1295 19.3733 43.0335L19.3664 43.0402Z" fill="#FCFDFC"/>
<path d="M24.6021 41.4977C24.6021 37.8511 26.8577 34.8201 30.9795 34.8201C33.5291 34.8201 34.8483 35.7808 35.4498 37.188H35.4908V29.6039H39.1751V48.2294H35.4908C35.5114 47.5663 35.5524 46.2877 35.5729 45.2999H35.5319C35.0534 47.0792 33.7547 48.4932 30.7676 48.4932C26.7894 48.4932 24.5952 45.672 24.5952 41.4977H24.6021ZM35.4908 41.6059V41.2879C35.4908 39.6913 34.2878 38.2299 31.8066 38.2299C29.4894 38.2299 28.2658 39.6372 28.2658 41.5315C28.2658 43.71 29.5509 45.0969 31.745 45.0969C34.1443 45.0969 35.4908 43.1552 35.4908 41.6127V41.6059Z" fill="#FCFDFC"/>
<path d="M40.563 35.084H44.9103L48.7381 44.2648H48.7586L52.5865 35.084H56.4553L50.6999 48.2226H46.3936L40.5562 35.084H40.563Z" fill="#FCFDFC"/>
<path d="M70.331 42.6411H60.4948C60.6794 44.2918 61.5065 45.5164 63.974 45.5164C66.2297 45.5164 66.9133 44.7993 67.0568 43.8927H70.331C70.2284 46.423 68.5059 48.4932 63.974 48.4932C58.4237 48.4932 56.7695 45.1172 56.7695 41.7886C56.7695 37.506 59.2986 34.8201 63.769 34.8201C68.2393 34.8201 70.331 37.2692 70.331 41.5518V42.6411ZM67.0568 40.0905C67.0568 38.893 66.3528 37.8037 63.974 37.8037C61.8209 37.8037 60.8913 38.6562 60.5769 40.1987H67.0568V40.0905Z" fill="#FCFDFC"/>
<path d="M71.9927 35.084H75.677L75.6359 38.9133H75.677C76.3195 36.41 77.8916 34.8134 81.1043 34.8134C85.062 34.8134 86.3607 37.2084 86.3607 40.4017V48.2226H82.6764V41.6804C82.6764 39.901 81.9108 38.487 79.4228 38.487C77.4131 38.487 75.677 39.6033 75.677 42.2351V48.2226H71.9927V35.084Z" fill="#FCFDFC"/>
<path d="M89.2787 43.1214V38.4938H87.3921V35.0908H88.9642C89.5042 35.0908 89.6683 34.7457 89.7503 33.9474L89.9349 32.1139H92.9561V35.0908H98.2125V38.4938H92.9561V43.0132C92.9561 44.5557 93.6397 45.0902 95.7518 45.0902C96.5379 45.0902 97.5563 44.9549 98.11 44.8263V48.1008C97.57 48.3106 96.3533 48.5 95.1503 48.5C90.6389 48.5 89.2718 46.2133 89.2718 43.1282L89.2787 43.1214Z" fill="#FCFDFC"/>
<path d="M99.833 42.6681V35.084H103.517V41.5991C103.517 43.7032 104.303 44.8195 106.6 44.8195C108.712 44.8195 110.51 43.2229 110.51 40.4828V35.084H114.194V48.2226H110.51C110.53 47.4242 110.551 45.8546 110.551 44.4745H110.51C109.826 47.0521 108.336 48.4932 105.042 48.4932C101.337 48.4932 99.8262 45.7261 99.8262 42.6681H99.833Z" fill="#FCFDFC"/>
<path d="M116.067 35.084H119.751L119.69 38.8862H119.751C120.332 36.7077 121.74 34.8134 124.433 34.8134C127.831 34.8134 128.904 37.2084 128.904 40.5099C128.904 41.6262 128.842 42.7155 128.801 43.2229H125.384C125.404 42.932 125.425 42.3975 125.425 41.8901C125.425 39.6845 124.905 38.487 123.128 38.487C120.77 38.487 119.751 40.8008 119.751 43.0876V48.2226H116.067V35.084Z" fill="#FCFDFC"/>
<path d="M144.12 42.6411H134.283C134.468 44.2918 135.295 45.5164 137.763 45.5164C140.018 45.5164 140.702 44.7993 140.845 43.8927H144.12C144.017 46.423 142.294 48.4932 137.763 48.4932C132.212 48.4932 130.558 45.1172 130.558 41.7886C130.558 37.506 133.087 34.8201 137.558 34.8201C142.028 34.8201 144.12 37.2692 144.12 41.5518V42.6411ZM140.845 40.0905C140.845 38.893 140.141 37.8037 137.763 37.8037C135.609 37.8037 134.68 38.6562 134.365 40.1987H140.845V40.0905Z" fill="#FCFDFC"/>
<path d="M145.562 43.8656H149.041C149.061 44.7181 149.328 45.5164 151.877 45.5164C154.427 45.5164 154.837 44.9819 154.837 44.1836C154.837 43.7844 154.653 43.4394 153.99 43.3311C153.203 43.1958 152 43.1958 150.886 43.1214C148.877 43.0132 147.428 42.7222 146.662 42.1336C145.896 41.545 145.562 40.564 145.562 39.4477C145.562 36.6806 147.776 34.8201 151.877 34.8201C156.785 34.8201 157.899 36.9783 157.899 39.5289H154.42C154.4 38.5682 154.051 37.797 151.98 37.797C149.909 37.797 149.246 38.3314 149.246 39.1501C149.246 39.6575 149.471 39.9213 150.216 40.0837C150.92 40.219 151.973 40.219 153.34 40.3205C154.871 40.4287 156.259 40.5843 157.107 41.0918C158.057 41.6533 158.515 42.6884 158.515 44.0212C158.515 46.1524 157.353 48.4932 151.871 48.4932C146.389 48.4932 145.555 45.8614 145.555 43.8656H145.562Z" fill="#FCFDFC"/>
<path d="M9.82568 30.5076C17.3468 26.7439 24.2395 20.5702 28.7139 13.503C30.1826 11.0119 32.5599 6.77431 31.016 3.96503C30.169 2.58408 28.4339 2.25915 26.8968 2.26592V2.18469C28.509 1.94099 30.4695 2.23207 31.4737 3.66717C33.4548 6.666 31.098 11.2556 29.4039 13.9227C25.0797 20.4687 17.0394 27.6374 9.83251 30.5076H9.82568Z" fill="#8DD3BB" stroke="#8DD3BB" stroke-width="3" stroke-linecap="round" stroke-linejoin="round"/>
</svg>
